<?xml version="1.0" encoding="UTF-8"?><svg id="Layer_1" xmlns="http://www.w3.org/2000/svg" viewBox="0 0 825.82 183.46"><defs><style>.cls-1{fill:#231f20;}</style></defs><path class="cls-1" d="M37.1,121.44c0-.4.31-.74.74-.74h2.71c.4,0,.74.34.74.74v8.31l7.76-8.74c.12-.16.31-.31.59-.31h3.08c.59,0,.89.65.49,1.11l-8.04,9.05,8.62,10.31c.31.4.06,1.08-.55,1.08h-3.36c-.31,0-.49-.12-.55-.22l-8.04-9.91v9.39c0,.4-.34.74-.74.74h-2.71c-.43,0-.74-.34-.74-.74v-20.07Z"/><path class="cls-1" d="M73.85,120.39c6.16,0,11.08,4.96,11.08,11.11s-4.93,11.05-11.08,11.05-11.05-4.89-11.05-11.05,4.89-11.11,11.05-11.11ZM73.85,138.56c3.88,0,7.08-3.17,7.08-7.05s-3.2-7.11-7.08-7.11-7.05,3.23-7.05,7.11,3.17,7.05,7.05,7.05Z"/><path class="cls-1" d="M96.65,121.44c0-.4.31-.74.74-.74h2.71c.4,0,.74.34.74.74v8.31l7.76-8.74c.12-.16.31-.31.59-.31h3.08c.59,0,.89.65.49,1.11l-8.03,9.05,8.62,10.31c.31.4.06,1.08-.55,1.08h-3.36c-.31,0-.49-.12-.55-.22l-8.04-9.91v9.39c0,.4-.34.74-.74.74h-2.71c-.43,0-.74-.34-.74-.74v-20.07Z"/><path class="cls-1" d="M133.4,120.39c6.16,0,11.08,4.96,11.08,11.11s-4.93,11.05-11.08,11.05-11.05-4.89-11.05-11.05,4.89-11.11,11.05-11.11ZM133.4,138.56c3.88,0,7.08-3.17,7.08-7.05s-3.2-7.11-7.08-7.11-7.05,3.23-7.05,7.11,3.17,7.05,7.05,7.05Z"/><path class="cls-1" d="M156.21,120.95c0-.31.28-.55.58-.55h.77l12.81,13.61h.03v-12.72c0-.31.25-.59.59-.59h2.83c.31,0,.59.28.59.59v20.72c0,.31-.28.55-.59.55h-.74l-12.87-14.13h-.03v13.24c0,.31-.25.59-.58.59h-2.8c-.31,0-.58-.28-.58-.59v-20.72Z"/><path class="cls-1" d="M184.89,141.45l9.57-20.72c.09-.18.25-.34.52-.34h.31c.31,0,.43.15.52.34l9.48,20.72c.18.4-.06.8-.52.8h-2.68c-.46,0-.68-.18-.89-.62l-1.51-3.32h-9.21l-1.51,3.32c-.12.31-.4.62-.89.62h-2.68c-.46,0-.71-.4-.52-.8ZM198.19,134.89l-3.08-6.77h-.09l-3.02,6.77h6.19Z"/><path class="cls-1" d="M215.79,121.29c0-.31.28-.59.58-.59h2.86c.31,0,.59.28.59.59v20.38c0,.31-.28.59-.59.59h-2.86c-.31,0-.58-.28-.58-.59v-20.38Z"/><path class="cls-1" d="M231.86,139.23l1.11-1.91c.25-.43.77-.43,1.05-.21.15.09,2.65,1.91,4.65,1.91,1.6,0,2.8-1.05,2.8-2.37,0-1.57-1.32-2.65-3.91-3.69-2.89-1.17-5.79-3.02-5.79-6.65,0-2.74,2.03-5.91,6.93-5.91,3.14,0,5.54,1.6,6.16,2.06.31.18.4.71.18,1.02l-1.17,1.75c-.25.37-.71.62-1.08.37-.25-.15-2.59-1.69-4.28-1.69s-2.71,1.17-2.71,2.16c0,1.45,1.14,2.43,3.63,3.45,2.99,1.2,6.43,2.99,6.43,6.96,0,3.17-2.74,6.1-7.08,6.1-3.88,0-6.16-1.82-6.77-2.4-.28-.28-.43-.43-.15-.92Z"/><path class="cls-1" d="M254.69,121.5c-.18-.4.06-.8.52-.8h3.14c.28,0,.46.18.52.34l5.91,13.24h.22l5.91-13.24c.06-.15.25-.34.52-.34h3.14c.46,0,.71.4.52.8l-9.54,20.72c-.09.18-.25.34-.52.34h-.31c-.28,0-.43-.15-.52-.34l-9.51-20.72Z"/><path class="cls-1" d="M281.26,141.45l9.57-20.72c.09-.18.25-.34.52-.34h.31c.31,0,.43.15.52.34l9.48,20.72c.18.4-.06.8-.52.8h-2.68c-.46,0-.68-.18-.89-.62l-1.51-3.32h-9.21l-1.51,3.32c-.12.31-.4.62-.89.62h-2.68c-.46,0-.71-.4-.52-.8ZM294.56,134.89l-3.08-6.77h-.09l-3.02,6.77h6.19Z"/><path class="cls-1" d="M312.16,121.29c0-.31.25-.59.58-.59h2.83c.31,0,.58.28.58.59v17.27h7.85c.34,0,.59.28.59.58v2.52c0,.31-.25.59-.59.59h-11.27c-.34,0-.58-.28-.58-.59v-20.38Z"/><path class="cls-1" d="M337.06,124.4h-4.71c-.34,0-.58-.28-.58-.59v-2.52c0-.31.25-.59.58-.59h13.45c.34,0,.58.28.58.59v2.52c0,.31-.25.59-.58.59h-4.71v17.27c0,.31-.28.59-.58.59h-2.86c-.31,0-.59-.28-.59-.59v-17.27Z"/><path class="cls-1" d="M353.31,141.45l9.57-20.72c.09-.18.25-.34.52-.34h.31c.31,0,.43.15.52.34l9.48,20.72c.18.4-.06.8-.52.8h-2.68c-.46,0-.68-.18-.89-.62l-1.51-3.32h-9.21l-1.51,3.32c-.12.31-.4.62-.89.62h-2.68c-.46,0-.71-.4-.52-.8ZM366.61,134.89l-3.08-6.77h-.09l-3.02,6.77h6.19Z"/><path class="cls-1" d="M384.21,121.29c0-.31.28-.59.58-.59h2.86c.31,0,.59.28.59.59v20.38c0,.31-.28.59-.59.59h-2.86c-.31,0-.58-.28-.58-.59v-20.38Z"/><path class="cls-1" d="M400.28,139.23l1.11-1.91c.25-.43.77-.43,1.05-.21.15.09,2.65,1.91,4.65,1.91,1.6,0,2.8-1.05,2.8-2.37,0-1.57-1.32-2.65-3.91-3.69-2.89-1.17-5.79-3.02-5.79-6.65,0-2.74,2.03-5.91,6.93-5.91,3.14,0,5.54,1.6,6.16,2.06.31.18.4.71.18,1.02l-1.17,1.75c-.25.37-.71.62-1.08.37-.25-.15-2.59-1.69-4.28-1.69s-2.71,1.17-2.71,2.16c0,1.45,1.14,2.43,3.63,3.45,2.99,1.2,6.43,2.99,6.43,6.96,0,3.17-2.74,6.1-7.08,6.1-3.88,0-6.16-1.82-6.77-2.4-.28-.28-.43-.43-.15-.92Z"/><path class="cls-1" d="M428.81,124.4h-4.71c-.34,0-.58-.28-.58-.59v-2.52c0-.31.25-.59.58-.59h13.45c.34,0,.58.28.58.59v2.52c0,.31-.25.59-.58.59h-4.71v17.27c0,.31-.28.59-.58.59h-2.86c-.31,0-.59-.28-.59-.59v-17.27Z"/><path class="cls-1" d="M445.06,141.45l9.57-20.72c.09-.18.25-.34.52-.34h.31c.31,0,.43.15.52.34l9.48,20.72c.18.4-.06.8-.52.8h-2.68c-.46,0-.68-.18-.89-.62l-1.51-3.32h-9.21l-1.51,3.32c-.12.31-.4.62-.89.62h-2.68c-.46,0-.71-.4-.52-.8ZM458.36,134.89l-3.08-6.77h-.09l-3.02,6.77h6.19Z"/><path class="cls-1" d="M487.65,141.45l9.57-20.72c.09-.18.25-.34.52-.34h.31c.31,0,.43.15.52.34l9.48,20.72c.18.4-.06.8-.52.8h-2.68c-.46,0-.68-.18-.89-.62l-1.51-3.32h-9.21l-1.51,3.32c-.12.31-.4.62-.89.62h-2.68c-.46,0-.71-.4-.52-.8ZM500.95,134.89l-3.08-6.77h-.09l-3.02,6.77h6.19Z"/><path class="cls-1" d="M517.94,121.29c0-.31.28-.59.59-.59h2.92c.34,0,.58.28.58.59v12.59c0,2.62,1.79,4.68,4.47,4.68s4.49-2.06,4.49-4.65v-12.62c0-.31.25-.59.59-.59h2.92c.31,0,.59.28.59.59v12.81c0,4.68-3.73,8.46-8.59,8.46s-8.56-3.79-8.56-8.46v-12.81Z"/><path class="cls-1" d="M550.97,124.4h-4.71c-.34,0-.58-.28-.58-.59v-2.52c0-.31.24-.59.58-.59h13.45c.34,0,.58.28.58.59v2.52c0,.31-.24.59-.58.59h-4.71v17.27c0,.31-.28.59-.58.59h-2.86c-.31,0-.59-.28-.59-.59v-17.27Z"/><path class="cls-1" d="M580.48,120.39c6.16,0,11.08,4.96,11.08,11.11s-4.93,11.05-11.08,11.05-11.05-4.89-11.05-11.05,4.9-11.11,11.05-11.11ZM580.48,138.56c3.88,0,7.08-3.17,7.08-7.05s-3.2-7.11-7.08-7.11-7.05,3.23-7.05,7.11,3.17,7.05,7.05,7.05Z"/><path class="cls-1" d="M603.29,121.29c0-.31.28-.59.58-.59h2.86c.34,0,.59.28.59.59v8.16h10.04v-8.16c0-.31.25-.59.59-.59h2.83c.31,0,.59.28.59.59v20.38c0,.31-.28.59-.59.59h-2.83c-.34,0-.59-.28-.59-.59v-8.5h-10.04v8.5c0,.31-.25.59-.59.59h-2.86c-.31,0-.58-.28-.58-.59v-20.38Z"/><path class="cls-1" d="M634.34,121.29c0-.31.28-.59.59-.59h2.92c.34,0,.59.28.59.59v12.59c0,2.62,1.79,4.68,4.46,4.68s4.5-2.06,4.5-4.65v-12.62c0-.31.25-.59.59-.59h2.92c.31,0,.59.28.59.59v12.81c0,4.68-3.72,8.46-8.59,8.46s-8.56-3.79-8.56-8.46v-12.81Z"/><path class="cls-1" d="M673.99,120.39c6.16,0,11.08,4.96,11.08,11.11s-4.92,11.05-11.08,11.05-11.05-4.89-11.05-11.05,4.89-11.11,11.05-11.11ZM673.99,138.56c3.88,0,7.08-3.17,7.08-7.05s-3.2-7.11-7.08-7.11-7.05,3.23-7.05,7.11,3.17,7.05,7.05,7.05Z"/><path class="cls-1" d="M696.79,121.29c0-.31.25-.59.59-.59h2.83c.31,0,.59.28.59.59v17.27h7.85c.34,0,.59.28.59.58v2.52c0,.31-.25.59-.59.59h-11.27c-.34,0-.59-.28-.59-.59v-20.38Z"/><path class="cls-1" d="M721.69,124.4h-4.71c-.34,0-.58-.28-.58-.59v-2.52c0-.31.24-.59.58-.59h13.45c.34,0,.59.28.59.59v2.52c0,.31-.25.59-.59.59h-4.71v17.27c0,.31-.28.59-.59.59h-2.86c-.31,0-.58-.28-.58-.59v-17.27Z"/><path class="cls-1" d="M751.21,120.39c6.16,0,11.08,4.96,11.08,11.11s-4.92,11.05-11.08,11.05-11.05-4.89-11.05-11.05,4.9-11.11,11.05-11.11ZM751.21,138.56c3.88,0,7.08-3.17,7.08-7.05s-3.2-7.11-7.08-7.11-7.05,3.23-7.05,7.11,3.17,7.05,7.05,7.05Z"/><path class="cls-1" d="M771.06,141.45l9.58-20.72c.09-.18.24-.34.52-.34h.31c.31,0,.43.15.52.34l9.48,20.72c.18.4-.06.8-.52.8h-2.68c-.46,0-.68-.18-.89-.62l-1.51-3.32h-9.2l-1.51,3.32c-.12.31-.4.62-.89.62h-2.68c-.46,0-.71-.4-.52-.8ZM784.36,134.89l-3.08-6.77h-.09l-3.02,6.77h6.19Z"/><path class="cls-1" d="M802.91,101.95H22.91c-.63,0-1.14-.51-1.14-1.14s.51-1.14,1.14-1.14h780c.63,0,1.14.51,1.14,1.14s-.51,1.14-1.14,1.14Z"/><path class="cls-1" d="M802.91,162.75H22.91c-.63,0-1.14-.51-1.14-1.14s.51-1.14,1.14-1.14h780c.63,0,1.14.51,1.14,1.14s-.51,1.14-1.14,1.14Z"/><path class="cls-1" d="M661.22,70.54c.53,0,.92-.12,1.06-.34.14-.22.1-.63-.11-1.12l-26.81-45.04c-.44-.98-.96-1.32-1.91-1.32h-10.51c-.96,0-1.48.35-1.86,1.23l-26.91,45.23c-.16.39-.2.8-.06,1.02.14.21.53.34,1.06.34h10.13c.88,0,1.39-.35,1.89-1.28l21.04-35.41,20.96,35.41c.52.95,1.02,1.29,1.89,1.29h10.13Z"/><path class="cls-1" d="M529.75,22.82h8.85c.78,0,1.41.63,1.41,1.41v44.84c0,.78-.63,1.41-1.41,1.41h-8.84c-.78,0-1.41-.63-1.41-1.41V24.23c0-.78.63-1.41,1.41-1.41Z"/><path class="cls-1" d="M587.06,70.18c.13-.22.08-.59-.14-1.02-.03-.06-.22-.38-1.26-1.31l-27.82-23.38,28.93-19.88c1.01-.74,1.19-.99,1.21-1.02.17-.26.2-.46.16-.53-.07-.13-.44-.32-1.17-.32h-14.96c-.46,0-.82.08-1.13.24l-.15.1-29.86,20.47,31.91,26.81c.21.13.55.22.98.22h12.19c.55,0,.97-.14,1.12-.38Z"/><path class="cls-1" d="M114.38,70.54h24.45c10.84,0,17.06-6.38,17.06-17.52v-28.89c0-.96-.45-1.41-1.41-1.41h-8.92c-.96,0-1.41.45-1.41,1.41v29.34c0,4.91-2.12,5.92-5.31,5.92h-24.45c-3.19,0-5.31-1.01-5.31-5.92v-29.34c0-.96-.45-1.41-1.41-1.41h-8.92c-.96,0-1.41.45-1.41,1.41v28.89c0,11.13,6.22,17.52,17.06,17.52Z"/><path class="cls-1" d="M223.74,32.53v-8.39c0-.96-.45-1.41-1.41-1.41h-56.09c-.96,0-1.41.45-1.41,1.41v8.39c0,.96.45,1.41,1.41,1.41h22.13v35.18c0,.96.45,1.41,1.41,1.41h9c.96,0,1.41-.45,1.41-1.41v-35.18h22.13c.96,0,1.41-.45,1.41-1.41Z"/><path class="cls-1" d="M768.95,70.54h9c.96,0,1.41-.45,1.41-1.41v-35.18h22.14c.96,0,1.41-.45,1.41-1.41v-8.39c0-.96-.45-1.41-1.41-1.41h-56.09c-.96,0-1.41.45-1.41,1.41v8.39c0,.96.45,1.41,1.41,1.41h22.13v35.18c0,.96.45,1.41,1.41,1.41Z"/><path class="cls-1" d="M272.93,22.73h-24.44c-10.84,0-17.06,6.41-17.06,17.59v12.71c0,11.13,6.22,17.52,17.06,17.52h24.44c10.84,0,17.06-6.38,17.06-17.52v-12.71c0-11.18-6.22-17.59-17.06-17.59ZM278.25,53.48c0,4.91-2.13,5.92-5.32,5.92h-24.44c-3.19,0-5.31-1.01-5.31-5.92v-13.61c0-5.01,1.95-6,5.31-6h24.44c3.37,0,5.32.98,5.32,6v13.61Z"/><path class="cls-1" d="M365.98,70.39c.96,0,1.41-.45,1.41-1.41V24.14c0-.96-.45-1.41-1.41-1.41h-10.81c-.95,0-1.55.32-1.98,1.08l-19.27,33.19-19.35-33.18c-.44-.76-1.03-1.09-1.98-1.09h-10.81c-.96,0-1.41.45-1.41,1.41v44.84c0,.96.45,1.41,1.41,1.41h8.84c.96,0,1.41-.45,1.41-1.41v-33.17l17.2,33.54c.42.72,1.01,1.05,1.96,1.05h5.29c.95,0,1.55-.32,1.98-1.08l17.26-33.74v33.41c0,.96.45,1.41,1.41,1.41h8.84Z"/><path class="cls-1" d="M724.81,22.73h8.84c.78,0,1.41.63,1.41,1.41v44.84c0,.78-.63,1.41-1.41,1.41h-8.85c-.78,0-1.41-.63-1.41-1.41V24.14c0-.78.63-1.41,1.41-1.41Z"/><path class="cls-1" d="M34.19,70.54c.88,0,1.39-.35,1.89-1.28l21.04-35.41,20.96,35.4c.52.96,1.01,1.29,1.89,1.29h10.13c.53,0,.92-.12,1.06-.34.14-.22.1-.63-.11-1.12l-26.81-45.04c-.44-.98-.96-1.32-1.91-1.32h-10.51c-.95,0-1.48.35-1.86,1.23l-26.91,45.23c-.16.39-.2.8-.06,1.02.14.21.53.34,1.06.34h10.13Z"/><path class="cls-1" d="M431.48,69.25c.52.96,1.02,1.29,1.89,1.29h10.13c.53,0,.92-.12,1.06-.34.14-.22.1-.63-.11-1.12l-26.81-45.04c-.44-.98-.96-1.32-1.91-1.32h-10.51c-.96,0-1.48.35-1.86,1.23l-26.91,45.23c-.16.39-.2.8-.06,1.02.14.21.53.34,1.06.34h10.13c.88,0,1.39-.35,1.89-1.28l21.04-35.41,20.96,35.4Z"/><path class="cls-1" d="M518.27,70.54c.53,0,.92-.12,1.06-.34.14-.22.1-.63-.11-1.12l-26.81-45.04c-.44-.98-.96-1.32-1.91-1.32h-10.51c-.96,0-1.48.35-1.86,1.23l-26.91,45.23c-.16.39-.2.8-.06,1.02.14.21.53.34,1.06.34h10.13c.88,0,1.39-.35,1.89-1.28l21.04-35.41,20.96,35.41c.52.95,1.02,1.29,1.89,1.29h10.13Z"/><path class="cls-1" d="M696.48,70.56h12.19c.55,0,.97-.14,1.12-.38.13-.22.08-.59-.14-1.02-.03-.06-.22-.38-1.25-1.3l-11.39-9.57,1.95-.24c9.87-1.22,13.71-5.76,13.73-16.2,0-6.78-1.67-11.59-5.07-14.7-3-2.75-7.37-4.18-13.36-4.39l-.42-.02c-.35-.01-.71-.03-1.08-.03h-40.04l6.63,11.14h32.2c1.83,0,3.22.11,4.39.34,3.46.67,5.01,2.69,5.01,6.55v.25c0,5.95-4.07,6.42-9.4,6.42l-23.2.07,27.17,22.87c.21.13.55.22.98.22Z"/></svg>